<svg id="Layer_1" data-name="Layer 1" xmlns="http://www.w3.org/2000/svg" xmlns:xlink="http://www.w3.org/1999/xlink" viewBox="0 0 282.28 104.74"><defs><style>.cls-1,.cls-8,.cls-9{fill:none;}.cls-2{clip-path:url(#clip-path);}.cls-3{fill:#f1c7de;}.cls-4{clip-path:url(#clip-path-2);}.cls-5{fill:#da66a6;}.cls-6{fill:#ffecde;}.cls-7{fill:#e53e96;}.cls-8{stroke:#ec6c71;}.cls-8,.cls-9{stroke-linecap:round;stroke-linejoin:round;stroke-width:4.56px;}.cls-9{stroke:#c77661;}.cls-10{fill:#62266d;}</style><clipPath id="clip-path" transform="translate(-1.81 -4.55)"><rect id="SVGID" class="cls-1" x="12.06" y="27.85" width="268.81" height="59.94"/></clipPath><clipPath id="clip-path-2" transform="translate(-1.81 -4.55)"><rect id="SVGID-2" data-name="SVGID" class="cls-1" x="20.03" y="4.55" width="52.56" height="72.53"/></clipPath></defs><title>GiftLand</title><g class="cls-2"><path class="cls-3" d="M232.88,38.52c4-.21,8-.52,11.93-.78,8-.45,15.86-1.21,23.78-1.85-.39,2.12-.75,4.33.4,6.15,0,0,1.22-.16,2.74-.47l4.57-.86c10.29,3.13,8.87,10.49,4.35,16.42-1.17,1.25-2.5,2.66-4,4.11l-3.8.09c-5.72.16-11.37.45-17.06.94s-11.34.85-17.09,1.38c-11.49.93-14.89,2-27.32,2.15-17.42-.29,17.31-1.42,0,0,20.55-.75-12.85,1.54,8,.35,5.24-.28,2.08-.55,7.27-.82l15.56-.59c5.18-.2,10.31-.22,15.44-.3s10.25-.09,15.36,0a30.18,30.18,0,0,1-14.18,6.43l-40,2.73c-.06-1-10.32.83-19.39,1.44s-18-1.32-27-1.1c-18,.49-53.79,6.3-54,7l-.27,0,.27,0c-.23.59-.06,1,2.25.85-2.31.17-2.48-.26-2.25-.85,36.47-3.66,62.24-5.4,98.91-7.19-28.44,2-47.86,4.32-75.83,6.74s-56.1,4.84-85.11,6.69l-9.89.63a101,101,0,0,0-29.8-2.2C19,80.37,8.8,70.94,28.64,71.75c0-1-.11-3-.14-4-10-1.91-16.86-6.28-19-10.78a5.86,5.86,0,0,1,.92-6.64c1.89-2.09,5-3.91,9.94-5.2C42.37,39.77,72.1,41.92,99.13,38c19.68-2.38,39.33-4.85,59.1-4.44,27.21.82,48.27-2.79,75.4-1.9,4.92-.08,11.58-1.44,17.66-2.44s11.44-1.94,14-.79c3.6.92,3.94,3,3.63,5.47-8,1-16,2.15-24,2.94-4,.43-8,.91-12,1.27l-12,1" transform="translate(-1.81 -4.55)"/></g><g class="cls-4"><path class="cls-5" d="M28.59,52.17S64.48,4.86,70,4.55c5.52,3.4-1.61,10-2.2,11.8S35.71,77.22,28.59,76.91,15.19,69.36,28.59,52.17Z" transform="translate(-1.81 -4.55)"/></g><path class="cls-6" d="M24.56,92.14a18.32,18.32,0,0,1-6.16,3.92C3.65,101.34,8.72,108,8.27,109.13S1.89,105.46,3.21,95.6A68.91,68.91,0,0,1,6.44,82.29c3.41-9.54,9.61-18.92,20-16.23a12.22,12.22,0,0,1,5.5,8.67C32.73,80.83,29.29,87.73,24.56,92.14Z" transform="translate(-1.81 -4.55)"/><path class="cls-7" d="M24.56,92.14a18.32,18.32,0,0,1-6.16,3.92C3.65,101.34,8.72,108,8.27,109.13S1.89,105.46,3.21,95.6A68.91,68.91,0,0,1,6.44,82.29c2.08-.4,3.19,2.11,1.85,4.31C6.41,89.69,6.22,99.38,7.21,97.11s.29-4.84,3.76-3.4,2.27-2.27,3.16-4,5.94-3.5,4.3,1.23C17.25,94.36,21.48,92.07,24.56,92.14Z" transform="translate(-1.81 -4.55)"/><path class="cls-8" d="M4.09,98.71a19.32,19.32,0,0,0,1.26,6" transform="translate(-1.81 -4.55)"/><path class="cls-8" d="M4.72,92.83s.93-6.88,2-8.11" transform="translate(-1.81 -4.55)"/><path class="cls-9" d="M40.76,40.73s9.11-13.4,10.89-15.36" transform="translate(-1.81 -4.55)"/><path class="cls-9" d="M53.63,22.69s2.67-3.71,3.27-4" transform="translate(-1.81 -4.55)"/><path class="cls-10" d="M70.78,56.78H60.61a.63.63,0,0,0,0,1.26h2.2v11a15.12,15.12,0,0,1-5.9,1.12,14.88,14.88,0,0,1-7.76-2V41.87a14.83,14.83,0,0,1,7.71-2h0c3.4,0,9.21,1.08,9.21,5.93v.85a.65.65,0,1,0,1.3,0V39.27a.65.65,0,0,0-1.3,0V42c-2.06-2.56-6.2-3.41-9.21-3.41h0c-9.3,0-15.55,6.6-15.55,16.43s6.25,16.43,15.6,16.43a14.86,14.86,0,0,0,12.36-5.88,1.42,1.42,0,0,0,.26-.81V58h1.25a.63.63,0,1,0,0-1.26ZM42.52,55c0-5.35,2-9.65,5.34-12.3V67.28C44.5,64.68,42.52,60.37,42.52,55Zm25.71,3V64.9a13.35,13.35,0,0,1-4.13,3.6V58Z" transform="translate(-1.81 -4.55)"/><path class="cls-10" d="M86.54,69.48H84V40.57h2.15a.63.63,0,0,0,0-1.25H75.26a.63.63,0,1,0,0,1.25h2V69.48H74.91a.6.6,0,0,0-.6.63.58.58,0,0,0,.6.63H86.54a.58.58,0,0,0,.6-.63A.6.6,0,0,0,86.54,69.48Zm-8,0V40.57h4.13V69.48Z" transform="translate(-1.81 -4.55)"/><path class="cls-10" d="M110.53,39.32H92.7a.56.56,0,0,0-.6.58.61.61,0,0,0,.6.67h1.76V69.48h-2a.58.58,0,0,0-.6.63.6.6,0,0,0,.6.63h11.63a.6.6,0,0,0,.69-.63.63.63,0,0,0-.69-.63h-2.93V55h7.41v2.15a.64.64,0,0,0,.65.63.61.61,0,0,0,.65-.63V51.62a.64.64,0,0,0-.65-.63.61.61,0,0,0-.65.63v2.15h-7.41V40.57h8.66v4.49a.65.65,0,0,0,1.29,0V39.94A.6.6,0,0,0,110.53,39.32ZM99.89,40.57V69.48H95.76V40.57Z" transform="translate(-1.81 -4.55)"/><path class="cls-10" d="M135.34,39.32H112.77a.64.64,0,0,0-.65.62v5.52a.68.68,0,0,0,.65.68.64.64,0,0,0,.64-.68V40.57h7.2V69.48h-2.37a.63.63,0,1,0,0,1.26h11.54a.63.63,0,0,0,0-1.26h-2.45V40.57h7.36v4.89a.65.65,0,1,0,1.3,0V39.94A.64.64,0,0,0,135.34,39.32ZM126,40.57V69.48H121.9V40.57Z" transform="translate(-1.81 -4.55)"/><path class="cls-10" d="M158.34,63.6a.64.64,0,0,0-.65.58v5.3H147.61V40.57h2.16a.63.63,0,0,0,0-1.25H139.34a.63.63,0,0,0,0,1.25h1.56V69.48h-1.81a.64.64,0,0,0-.61.63.58.58,0,0,0,.61.63h19.29a.58.58,0,0,0,.61-.63V64.18A.63.63,0,0,0,158.34,63.6Zm-16.15,5.88V40.57h4.13V69.48Z" transform="translate(-1.81 -4.55)"/><path class="cls-10" d="M189.4,69.48h-1.77L178.89,39.9a.73.73,0,0,0-.74-.58h-9.43a.63.63,0,0,0,0,1.25h2.5l-9,28.91h-2.41a.62.62,0,0,0-.56.63.59.59,0,0,0,.56.63h6.63a.6.6,0,0,0,.56-.63.63.63,0,0,0-.56-.63h-2.89L166,61.85h12.5l2.28,7.63h-2.42a.62.62,0,0,0-.55.63.59.59,0,0,0,.55.63H189.4a.6.6,0,0,0,.56-.63A.63.63,0,0,0,189.4,69.48Zm-7.33,0-8.53-28.91h4.23l8.52,28.91Zm-4-8.89H166.35l6-19.34Z" transform="translate(-1.81 -4.55)"/><path class="cls-10" d="M219.16,39.32h-7.07a.63.63,0,1,0,0,1.25h2.84V59.11l-13-19.62a.47.47,0,0,0-.39-.17h-9.22a.56.56,0,0,0-.56.62.6.6,0,0,0,.56.63h2.37V69.48H192a.63.63,0,0,0-.6.63.6.6,0,0,0,.6.63h7.92a.61.61,0,0,0,.65-.63.64.64,0,0,0-.65-.63H196V42.77l18.48,27.79c.39.58.78.85,1.16.85s.61-.49.61-1.34V40.57h2.93a.63.63,0,0,0,0-1.25Zm-4.23,29.62L196.07,40.57h5L214.93,61.4Z" transform="translate(-1.81 -4.55)"/><path class="cls-10" d="M236.39,39.32H224.2a.63.63,0,0,0,0,1.25h2.06V69.48h-2.37a.6.6,0,0,0-.6.63.58.58,0,0,0,.6.63h12.5c9,0,15.07-6.28,15.07-15.76S245.43,39.32,236.39,39.32Zm-8.83,30.16V40.57h4.13V69.48Zm8.83,0H233V40.57h3.41A14,14,0,0,1,244,42.64V67.42A14,14,0,0,1,236.39,69.48Zm8.91-3V43.54c3.06,2.56,4.87,6.55,4.87,11.44S248.36,63.92,245.3,66.48Z" transform="translate(-1.81 -4.55)"/></svg>